<svg xmlns="http://www.w3.org/2000/svg" xmlns:xlink="http://www.w3.org/1999/xlink" id="Capa_1" x="0px" y="0px" viewBox="0 0 207.27 81.63" style="enable-background:new 0 0 207.27 81.63;" xml:space="preserve"> <style type="text/css"> .st0{fill:#153D8A;} .st1{fill:#153C89;} .st2{fill:#3ABFF0;} .st3{fill:#20AA63;} </style> <g> <path class="st0" d="M100.54,34.92v6.47c0,1.42,0.69,2.13,2.06,2.13c1.37,0,2.06-0.71,2.06-2.13v-6.47h4.05v7.25 c0,1.55-0.51,2.72-1.53,3.49c-1.02,0.78-2.55,1.16-4.58,1.16c-2.03,0-3.56-0.39-4.58-1.16c-1.02-0.78-1.53-1.94-1.53-3.49v-7.25 H100.54z"></path> <path class="st0" d="M111.02,34.92h4.05v1.88c0.43-0.69,0.96-1.21,1.59-1.58c0.63-0.37,1.36-0.55,2.19-0.55c0.1,0,0.22,0,0.35,0 c0.13,0,0.27,0.02,0.44,0.04v3.87c-0.54-0.27-1.12-0.4-1.75-0.4c-0.94,0-1.65,0.28-2.12,0.84c-0.47,0.56-0.71,1.38-0.71,2.45v4.93 h-4.05V34.92z"></path> <path class="st0" d="M124.88,34.92l2.73,5.89l2.78-5.89h4.52l-5.98,11.49h-2.71l-5.91-11.49H124.88z"></path> <path class="st0" d="M144.15,34.92h4.08V46.4h-4.08v-1.28c-0.87,1.09-2.04,1.63-3.52,1.63c-0.84,0-1.6-0.15-2.31-0.46 c-0.7-0.31-1.31-0.73-1.84-1.29c-0.52-0.55-0.93-1.2-1.22-1.95c-0.29-0.75-0.44-1.56-0.44-2.44c0-0.82,0.14-1.6,0.43-2.34 c0.28-0.74,0.68-1.38,1.19-1.94c0.51-0.55,1.11-0.99,1.81-1.31c0.7-0.32,1.48-0.48,2.33-0.48c1.43,0,2.62,0.5,3.56,1.5V34.92z M139.05,40.63c0,0.37,0.07,0.72,0.2,1.04c0.13,0.32,0.32,0.6,0.55,0.84c0.23,0.24,0.51,0.43,0.83,0.56 c0.32,0.13,0.67,0.2,1.04,0.2c0.36,0,0.7-0.07,1.02-0.2c0.32-0.13,0.6-0.32,0.83-0.56c0.23-0.24,0.42-0.52,0.56-0.83 c0.14-0.31,0.21-0.65,0.21-1.01c0-0.36-0.07-0.7-0.21-1.02c-0.14-0.32-0.33-0.6-0.56-0.84c-0.23-0.24-0.51-0.43-0.83-0.56 c-0.32-0.13-0.66-0.2-1.02-0.2c-0.37,0-0.72,0.07-1.04,0.2c-0.32,0.13-0.6,0.32-0.83,0.56c-0.23,0.24-0.41,0.51-0.55,0.82 C139.12,39.94,139.05,40.27,139.05,40.63z"></path> <path class="st0" d="M158.15,37.87c-0.75-0.39-1.48-0.58-2.19-0.58c-0.37,0-0.68,0.07-0.91,0.22c-0.23,0.15-0.35,0.35-0.35,0.6 c0,0.13,0.02,0.24,0.06,0.32c0.04,0.08,0.12,0.16,0.25,0.24c0.13,0.07,0.31,0.14,0.56,0.2c0.25,0.06,0.57,0.13,0.97,0.22 c1.12,0.22,1.96,0.62,2.51,1.2c0.55,0.58,0.83,1.31,0.83,2.21c0,0.67-0.13,1.28-0.4,1.81c-0.27,0.54-0.64,0.99-1.12,1.35 c-0.48,0.37-1.05,0.65-1.72,0.85c-0.67,0.2-1.41,0.3-2.22,0.3c-1.55,0-3.08-0.44-4.59-1.32l1.48-2.87 c1.13,0.78,2.21,1.16,3.22,1.16c0.37,0,0.68-0.08,0.92-0.25c0.24-0.16,0.36-0.37,0.36-0.63c0-0.15-0.02-0.27-0.06-0.37 c-0.04-0.1-0.12-0.19-0.24-0.27c-0.12-0.08-0.29-0.16-0.53-0.22c-0.23-0.07-0.53-0.14-0.91-0.21c-1.25-0.25-2.13-0.63-2.63-1.13 c-0.5-0.5-0.75-1.19-0.75-2.07c0-0.64,0.12-1.22,0.36-1.74c0.24-0.51,0.58-0.95,1.03-1.31c0.45-0.36,0.99-0.63,1.62-0.83 c0.63-0.19,1.34-0.29,2.12-0.29c1.27,0,2.5,0.25,3.69,0.74L158.15,37.87z"></path> <path class="st0" d="M165.13,41.34c0,1.75,0.82,2.62,2.46,2.62c0.88,0,1.55-0.36,1.99-1.07h3.92c-0.79,2.63-2.77,3.94-5.93,3.94 c-0.97,0-1.86-0.15-2.66-0.44c-0.81-0.29-1.5-0.71-2.07-1.24c-0.57-0.54-1.02-1.18-1.33-1.93c-0.31-0.75-0.47-1.58-0.47-2.51 c0-0.96,0.15-1.82,0.45-2.59c0.3-0.77,0.72-1.42,1.28-1.96c0.55-0.54,1.22-0.95,2-1.24c0.78-0.29,1.67-0.44,2.65-0.44 c0.97,0,1.84,0.15,2.62,0.44c0.78,0.29,1.43,0.71,1.97,1.27c0.54,0.55,0.95,1.23,1.23,2.03c0.28,0.8,0.43,1.7,0.43,2.7v0.43H165.13 z M169.88,38.99c-0.13-0.57-0.41-1.02-0.83-1.37c-0.42-0.34-0.93-0.52-1.52-0.52c-0.63,0-1.14,0.16-1.53,0.49 c-0.4,0.33-0.65,0.79-0.75,1.39H169.88z"></path> <path class="st0" d="M175.08,40.56c0-0.85,0.17-1.65,0.51-2.38c0.34-0.74,0.82-1.38,1.43-1.93c0.61-0.55,1.34-0.97,2.18-1.29 c0.84-0.31,1.77-0.47,2.77-0.47c0.99,0,1.9,0.15,2.74,0.46c0.84,0.31,1.57,0.73,2.19,1.28c0.62,0.55,1.1,1.19,1.44,1.95 c0.34,0.75,0.51,1.59,0.51,2.5c0,0.91-0.18,1.74-0.53,2.5c-0.35,0.75-0.83,1.4-1.44,1.95c-0.61,0.55-1.35,0.97-2.21,1.27 c-0.86,0.3-1.79,0.45-2.79,0.45c-0.99,0-1.9-0.15-2.73-0.45c-0.84-0.3-1.56-0.72-2.16-1.28c-0.6-0.55-1.08-1.21-1.42-1.98 C175.25,42.35,175.08,41.5,175.08,40.56z M179.35,40.6c0,0.39,0.07,0.74,0.21,1.06c0.14,0.32,0.33,0.6,0.56,0.84 c0.23,0.24,0.51,0.43,0.83,0.56c0.32,0.13,0.66,0.2,1.02,0.2c0.36,0,0.7-0.07,1.02-0.2c0.32-0.13,0.6-0.32,0.83-0.56 c0.23-0.24,0.42-0.52,0.56-0.84c0.14-0.32,0.21-0.67,0.21-1.04c0-0.36-0.07-0.7-0.21-1.02c-0.14-0.32-0.33-0.6-0.56-0.84 c-0.23-0.24-0.51-0.43-0.83-0.56c-0.32-0.13-0.66-0.2-1.02-0.2c-0.36,0-0.7,0.07-1.02,0.2c-0.32,0.13-0.6,0.32-0.83,0.56 c-0.23,0.24-0.42,0.51-0.56,0.83C179.42,39.91,179.35,40.25,179.35,40.6z"></path> </g> <g> <path class="st1" d="M76.56,57.62c5.3-10.54,4.02-23.36-2.9-33.13c-5.1-7.04-12.97-11.5-21.72-12.17 c-12.76-0.62-24.52,8.9-26.09,21.44c1.88-10.62,12.39-16.75,23.02-15.25c14.62,1.83,25.44,14.97,23.41,29.78 c-2.62,21.27-26.25,31.92-44.91,25.39c14.58,8.88,34.6,3.45,45.05-9.63C73.92,62.09,75.29,59.95,76.56,57.62z"></path> <path class="st2" d="M45.65,3.3c-11.78,0.68-22.24,8.2-27.24,19.08c-3.54,7.94-3.47,16.98,0.32,24.89 c5.84,11.36,19.97,16.78,31.61,11.87c-10.14,3.68-20.7-2.35-24.71-12.31c-5.73-13.58,0.24-29.51,14.08-35.16 c19.73-8.37,40.77,6.77,44.44,26.2c0.4-17.07-14.31-31.69-30.87-34.2C50.83,3.36,48.3,3.24,45.65,3.3z"></path> <path class="st3" d="M14.34,57.89c6.47,9.86,18.22,15.16,30.14,14.05c8.65-0.9,16.44-5.48,21.4-12.72 c6.91-10.74,4.55-25.69-5.52-33.31c8.25,6.94,8.31,19.1,1.7,27.56c-8.89,11.75-25.68,14.55-37.49,5.39 C7.45,45.95,10.04,20.16,25.03,7.27C10.05,15.45,4.74,35.51,10.85,51.1C11.8,53.37,12.96,55.63,14.34,57.89z"></path> </g> </svg>