<?xml version="1.0" encoding="UTF-8"?> <svg xmlns="http://www.w3.org/2000/svg" id="Layer_1" data-name="Layer 1" viewBox="0 0 208.77 45.39"><defs><style>.cls-1{fill:#c10230;}</style></defs><title>logo-afpv</title><path class="cls-1" d="M72.72,1.08h7L95.4,44.31H86l-2.88-8.92H66.32l-2.75,8.92h-9.4L68.45,4A4.22,4.22,0,0,1,72.72,1.08Zm2,8.67-6,18.35h12Z"></path><path class="cls-1" d="M98.54,44.31V5.6a4.34,4.34,0,0,1,1.31-3.2,4.35,4.35,0,0,1,3.2-1.32h26.82V8.49H107.31v9.3H124.1v2.89a4.49,4.49,0,0,1-4.51,4.53H107.31v19.1Z"></path><path class="cls-1" d="M141.9,28.85V40a4.27,4.27,0,0,1-4.3,4.32H133V1.08h19.18q6.88,0,10.28,3.52T166,15q0,6.53-3.39,10.3-3.37,3.53-9.77,3.52Zm0-7.79h8.65q3.51,0,5-1.51t1.63-4.77a6.91,6.91,0,0,0-1.5-4.65,6.86,6.86,0,0,0-4.64-1.51H141.9Z"></path><path class="cls-1" d="M193.17,4.34a3.91,3.91,0,0,1,4.26-3.26h6.39L189.15,44.31h-8.52L166,1.08h6.39a3.91,3.91,0,0,1,4.26,3.26l8.27,29Z"></path><path class="cls-1" d="M44.57,1.08H8.45A3.5,3.5,0,0,0,5,4.58V40.8a3.51,3.51,0,0,0,3.5,3.51H44.57a3.51,3.51,0,0,0,3.5-3.51V4.58A3.5,3.5,0,0,0,44.57,1.08ZM26.51,30.81a8.12,8.12,0,1,1,8.1-8.12A8.12,8.12,0,0,1,26.51,30.81Z"></path><path class="cls-1" d="M26.51,15.61a7.09,7.09,0,1,0,7.07,7.08A7.08,7.08,0,0,0,26.51,15.61Zm0,11.48a4.4,4.4,0,1,1,4.39-4.4A4.4,4.4,0,0,1,26.51,27.09Z"></path></svg> 