<svg id="Capa_1" data-name="Capa 1" xmlns="http://www.w3.org/2000/svg" xmlns:xlink="http://www.w3.org/1999/xlink" viewBox="0 0 354.4 69.9"><defs><style>.cls-1,.cls-2,.cls-3,.cls-4,.cls-5,.cls-6,.cls-7{fill-rule:evenodd;}.cls-1{fill:url(#GradientFill_83);}.cls-2{fill:url(#GradientFill_74);}.cls-3{fill:url(#GradientFill_83-2);}.cls-4{fill:url(#GradientFill_74-2);}.cls-5{fill:url(#GradientFill_82);}.cls-6{fill:url(#GradientFill_81);}.cls-7{fill:url(#GradientFill_80);}</style><radialGradient id="GradientFill_83" cx="64.92" cy="63.79" r="46.95" gradientUnits="userSpaceOnUse"><stop offset="0" stop-color="#fff"/><stop offset="0.28" stop-color="#a6def8"/><stop offset="0.54" stop-color="#26aae1"/><stop offset="1" stop-color="#1a5499"/></radialGradient><radialGradient id="GradientFill_74" cx="-283.99" cy="337.82" r="29.75" gradientTransform="translate(317.55 -254.27) rotate(2.1)" gradientUnits="userSpaceOnUse"><stop offset="0" stop-color="#d0e188"/><stop offset="0.34" stop-color="#cbdb42"/><stop offset="0.67" stop-color="#77bf43"/><stop offset="1" stop-color="#00854b"/></radialGradient><radialGradient id="GradientFill_83-2" cx="19.62" cy="9.7" r="47.32" xlink:href="#GradientFill_83"/><radialGradient id="GradientFill_74-2" cx="-269.44" cy="299.91" r="37.19" xlink:href="#GradientFill_74"/><radialGradient id="GradientFill_82" cx="7.75" cy="-7.01" r="46.91" gradientUnits="userSpaceOnUse"><stop offset="0" stop-color="#fff"/><stop offset="0.14" stop-color="#fbfdfe"/><stop offset="0.27" stop-color="#eff9fd"/><stop offset="0.41" stop-color="#dbf1fa"/><stop offset="0.54" stop-color="#bfe6f6"/><stop offset="0.68" stop-color="#9cd8f1"/><stop offset="0.81" stop-color="#70c7eb"/><stop offset="0.95" stop-color="#3db3e4"/><stop offset="1" stop-color="#26aae1"/></radialGradient><radialGradient id="GradientFill_81" cx="20.55" cy="11.24" r="27.65" gradientUnits="userSpaceOnUse"><stop offset="0" stop-color="#fff"/><stop offset="0.39" stop-color="#a6def8"/><stop offset="0.89" stop-color="#26aae1"/><stop offset="1" stop-color="#1a5499"/></radialGradient><linearGradient id="GradientFill_80" x1="31.59" y1="25.93" x2="22.83" y2="9.45" gradientUnits="userSpaceOnUse"><stop offset="0" stop-color="#48c7f4"/><stop offset="0.42" stop-color="#a6def8"/><stop offset="1" stop-color="#fff"/></linearGradient></defs><title>AGROBIMSALOGO</title><path d="M88.74,51.19c2-2.62,4.44-5.84,7.25-9.69l7.88-10.73q3.67-5,6.17-8.62c1.84,0,3.14,0,3.91,0,1.35,0,2.67,0,4,0l1.19,8.7,2.79,18,.41,2.34-3.18,0c-.73,0-2,0-3.72,0-.07-1.26-.24-3-.52-5.11s-.53-3.87-.76-5.21H102.93q-3.57,5.07-7,10.32l-3.47,0C91.77,51.15,90.55,51.16,88.74,51.19Zm17-14.74h8.16l-1.26-9.85-2.48,3.58Z"/><path d="M145.66,34.6c2,0,3.82,0,5.61,0,2.34,0,4.29,0,5.86,0Q155,41.73,153,50.42c-2.46.47-4.65.8-6.59,1a49,49,0,0,1-4.91.29,26.8,26.8,0,0,1-6.78-.79,10.69,10.69,0,0,1-4.87-2.55,8.45,8.45,0,0,1-2.39-4.65,15.32,15.32,0,0,1,.14-6.09,19.48,19.48,0,0,1,2-5.3,20.66,20.66,0,0,1,3.55-4.68A19.9,19.9,0,0,1,138,24.1a19.08,19.08,0,0,1,5.49-1.94,31.44,31.44,0,0,1,5.8-.52,44.15,44.15,0,0,1,9.26,1.11c-.33,1.61-.61,3.29-.85,5.06a25.79,25.79,0,0,0-8.72-1.68,18,18,0,0,0-5.11.74,13.65,13.65,0,0,0-7.91,6.18,16.08,16.08,0,0,0-1.9,4.78,11,11,0,0,0,0,4.9,5.26,5.26,0,0,0,2.68,3.35,10.55,10.55,0,0,0,5.22,1.2,21.15,21.15,0,0,0,2.71-.21,24,24,0,0,0,3.32-.69l2-7.46-1.69,0c-.94,0-2.16,0-3.63.07C145.07,37.05,145.45,35.6,145.66,34.6Z"/><path d="M158.56,51.19q2-6.34,4.06-14.57c1.38-5.49,2.5-10.31,3.39-14.47,1.69,0,3.12,0,4.27,0s2.45,0,3.64-.07,2.45-.05,3.77-.05a31.07,31.07,0,0,1,4.35.27,6.69,6.69,0,0,1,3.18,1.28A4.76,4.76,0,0,1,187,26a6.6,6.6,0,0,1,0,3.32,10.27,10.27,0,0,1-.76,2.27,9.84,9.84,0,0,1-1.25,2,10.26,10.26,0,0,1-1.63,1.66,11.21,11.21,0,0,1-1.72,1.13,10.9,10.9,0,0,1-1.83.71c-.66.19-1.55.44-2.66.72l.85,2.8q.41,1.35,1.64,4.82L181,49.25c.06.21.27.84.61,1.94l-3.43,0c-.68,0-1.89,0-3.62,0l-1.15-5.66c-.23-.86-.5-1.89-.83-3.06l-1.48-5.17c-.15-.49-.35-1.21-.59-2.17a13.88,13.88,0,0,0,2.54.25,9.94,9.94,0,0,0,3.46-.59A6.48,6.48,0,0,0,179.2,33a6.18,6.18,0,0,0,1.38-2.72,3.68,3.68,0,0,0,0-1.65,2.32,2.32,0,0,0-.91-1.3,3.75,3.75,0,0,0-1.84-.68,16.82,16.82,0,0,0-2.26-.15l-1.75,0-2.73,0-2.24,8.74-3.78,16-3.3,0Z"/><path d="M208.88,21.64a19.28,19.28,0,0,1,5.89.87,10.4,10.4,0,0,1,4.57,2.85,9.77,9.77,0,0,1,2.43,4.57,14.52,14.52,0,0,1-.15,6.12,21.16,21.16,0,0,1-2.42,6.25,17.62,17.62,0,0,1-4.46,5.16,18.51,18.51,0,0,1-6.21,3.2,24.83,24.83,0,0,1-7.09,1,20.59,20.59,0,0,1-6.34-1,10.64,10.64,0,0,1-4.76-3,8.78,8.78,0,0,1-2.25-4.68,15.62,15.62,0,0,1,.24-5.73,20.66,20.66,0,0,1,2.59-6.47,17.39,17.39,0,0,1,4.69-5.1,21,21,0,0,1,6.2-3.07A24.15,24.15,0,0,1,208.88,21.64Zm-1.31,4.53a12.06,12.06,0,0,0-5.91,1.48,12.65,12.65,0,0,0-4.44,4,15.31,15.31,0,0,0-2.38,5.54,10.42,10.42,0,0,0,.07,5.1,5.76,5.76,0,0,0,2.81,3.55,9.72,9.72,0,0,0,4.93,1.22,12.57,12.57,0,0,0,4.17-.72,11.64,11.64,0,0,0,3.78-2.2,12.78,12.78,0,0,0,2.85-3.56,15.61,15.61,0,0,0,1.63-4.35,12.68,12.68,0,0,0,.23-4,6.78,6.78,0,0,0-1.24-3.33,6,6,0,0,0-2.74-2.06A10.22,10.22,0,0,0,207.57,26.17Z"/><path d="M222.48,51.19q1.36-4.52,2.13-7.38c.5-1.92,1.32-5.18,2.47-9.81s1.89-7.8,2.26-9.52c.11-.53.26-1.31.47-2.33,1.78,0,3.26,0,4.43,0s2.67,0,4.42-.07,3.2-.05,4.33-.05a21.9,21.9,0,0,1,3.54.2,7.21,7.21,0,0,1,2,.61,4,4,0,0,1,1.37,1,4.1,4.1,0,0,1,.79,1.37A5.11,5.11,0,0,1,251,27a8.12,8.12,0,0,1-.17,1.88,10.5,10.5,0,0,1-.78,2.27,8.38,8.38,0,0,1-1.24,1.93,8.28,8.28,0,0,1-1.57,1.46,11,11,0,0,1-1.59,1,17.16,17.16,0,0,1-1.92.72,13.16,13.16,0,0,1,1.51.41,5.14,5.14,0,0,1,1.14.62,4.27,4.27,0,0,1,1.06,1.06,4.36,4.36,0,0,1,.69,1.38,6.51,6.51,0,0,1,.22,1.6,7.91,7.91,0,0,1-.2,1.84,9.6,9.6,0,0,1-1.67,3.75,9.4,9.4,0,0,1-3,2.69,11.34,11.34,0,0,1-3.75,1.32,64,64,0,0,1-8.26.33l-5.14,0ZM229.81,47h4.83a17.24,17.24,0,0,0,2.31-.12,8.47,8.47,0,0,0,1.65-.41,5.92,5.92,0,0,0,1.31-.64,4.76,4.76,0,0,0,.94-.87,6,6,0,0,0,.78-1.21,6.29,6.29,0,0,0,.49-1.4,4,4,0,0,0,0-1.72,2.57,2.57,0,0,0-.73-1.29,3.07,3.07,0,0,0-1.4-.79,10.1,10.1,0,0,0-2.67-.25H232Zm3.25-12.85h3.42a24.16,24.16,0,0,0,3-.11,9.2,9.2,0,0,0,1.67-.41,4.75,4.75,0,0,0,1.6-1,5.7,5.7,0,0,0,1.14-1.43,5.57,5.57,0,0,0,.6-1.58,3.63,3.63,0,0,0,0-1.5,2,2,0,0,0-.63-1.15,3,3,0,0,0-1.29-.67,11,11,0,0,0-2.42-.2h-5.09Z"/><path d="M251,51.19q2.06-7.32,4-15t2.81-11.76l.47-2.27,3.54,0,3.27,0q-3.25,11.19-7.28,29l-3.12,0Z"/><path d="M263.2,51.19l1.58-4.81,5-16.89,2-7.34c2,0,3.51,0,4.44,0,.75,0,2.12,0,4.12,0,0,1.15,0,2,0,2.44s.07,1.26.17,2.33.25,2.35.43,3.87c.27,2.3.46,4.56.58,6.8l.33,6.09,4.5-7.81,6.3-10.14c.22-.35.45-.74.69-1.19s.66-1.24,1.26-2.39c1.68,0,3.19,0,4.51,0,.87,0,2.28,0,4.21,0q-1.59,6.13-3.32,13.54t-2.5,11.07c-.25,1.18-.55,2.66-.89,4.43-1.4,0-2.36,0-2.87,0-.74,0-1.72,0-2.94,0,.39-1.45.7-2.63.92-3.57L294.79,35c.43-1.8.82-3.55,1.18-5.28l.35-1.72L284.1,48.66l-1.45,2.53c-1.37,0-2.32,0-2.83,0s-1.65,0-3,0l-.88-13.1c0-.47-.11-1.46-.27-2.94l-.39-4.34a8.54,8.54,0,0,1-.07-1c0-.27,0-.85,0-1.75l-.86,2.72c-.26.86-.67,2.31-1.25,4.33l-3.63,13.2c-.17.65-.39,1.61-.68,2.89l-2.73,0Z"/><path d="M301.73,50.57c.35-2.15.58-3.91.67-5.27a16.08,16.08,0,0,0,7.18,1.89,8.32,8.32,0,0,0,2.63-.42,4.62,4.62,0,0,0,2-1.17,3.49,3.49,0,0,0,.92-1.69,2.86,2.86,0,0,0,0-1.3,4.45,4.45,0,0,0-1-1.63c-.64-.78-1.82-2.06-3.52-3.85-.81-.87-1.36-1.48-1.66-1.85a11.59,11.59,0,0,1-1.5-2.18,5.73,5.73,0,0,1-.56-1.92,6.89,6.89,0,0,1,.13-2.05,8.55,8.55,0,0,1,1.92-3.76,9.85,9.85,0,0,1,3.92-2.74,15.4,15.4,0,0,1,5.82-1,33.91,33.91,0,0,1,6.68.74c-.23,1.48-.44,3.17-.64,5.06a15.3,15.3,0,0,0-5.85-1.27,6.75,6.75,0,0,0-3.61.95,3.54,3.54,0,0,0-1.79,2.2,2.73,2.73,0,0,0-.06.71,2.48,2.48,0,0,0,.13.72,3.7,3.7,0,0,0,.46.92A8,8,0,0,0,315.1,33c.5.51.93.91,1.3,1.23l2.12,2.37c.54.56,1,1.1,1.44,1.62a12.56,12.56,0,0,1,1,1.51,6.08,6.08,0,0,1,.59,1.38,5.58,5.58,0,0,1,.19,1.36,6.22,6.22,0,0,1-.15,1.45,8.71,8.71,0,0,1-1.54,3.37,9.59,9.59,0,0,1-2.94,2.61,12.15,12.15,0,0,1-3.71,1.41,19.45,19.45,0,0,1-4,.4,23.29,23.29,0,0,1-3.11-.24C305.14,51.31,303.61,51,301.73,50.57Z"/><path d="M320.83,51.19c2-2.62,4.45-5.84,7.25-9.69L336,30.77q3.67-5,6.17-8.62c1.83,0,3.14,0,3.9,0,1.35,0,2.67,0,4,0l1.19,8.7,2.78,18,.42,2.34-3.18,0c-.73,0-2,0-3.72,0-.07-1.26-.25-3-.52-5.11s-.54-3.87-.76-5.21H335q-3.56,5.07-7,10.32l-3.45,0C323.87,51.15,322.63,51.16,320.83,51.19Zm17-14.74H346l-1.25-9.85-2.49,3.58Z"/><path class="cls-1" d="M58.4,7.39A30.66,30.66,0,0,0,10.18,41.08a19,19,0,0,0,2.54,2.26A16.51,16.51,0,0,0,24,47.13c9.22-.36,14.46-7.41,19.26-16.35,2.4-4.49,7.37-9.92,12.34-11.58a25.3,25.3,0,0,1,12-.75A30.58,30.58,0,0,0,58.4,7.39Z"/><path class="cls-2" d="M69.64,22.27c-.06-.2-.14-.39-.2-.58a3.2,3.2,0,0,0-.25.27c0-.11-.07-.23-.11-.35s-.14-.38-.21-.58c-1.41,1.39-2.05,3.62-2.46,6.26-1.48,9.55-3,17.91-7.15,24.8-4.39,7.25-10.95,10.46-17.68,12.27-7.64,2-17.87,2-23.94-1.22a43.79,43.79,0,0,0,6.73.75,36,36,0,0,0,14.72-2C48.5,58.05,54.41,51.7,57.5,39h0a28.9,28.9,0,0,0,1.08-7.47,13.14,13.14,0,0,1-1.83,4.38l.13.51C47.89,52.13,32.71,63.8,14.21,57a27.88,27.88,0,0,1-11.06-8c-.39-.48-.77-1-1.15-1.46h.62L0,44a9,9,0,0,0,.57,2.21l0-.06c.07.18.14.36.22.54.15.42.27.71.27.71H1A36.32,36.32,0,0,0,33.78,69.87a36.29,36.29,0,0,0,35.86-47.6Z"/><path class="cls-3" d="M23.24,45.9c9.22-.35,14.46-7.4,19.26-16.34,2.4-4.5,7.36-9.92,12.34-11.58a25.43,25.43,0,0,1,12-.76,30.66,30.66,0,0,0-56.62,23.2A16.62,16.62,0,0,0,23.24,45.9Z"/><path class="cls-4" d="M68.91,20.25c-1.42,1.4-2,3.62-2.47,6.25-1.49,9.56-3,17.92-7.15,24.81-4.38,7.25-10.95,10.46-17.68,12.27-8.37,2.25-19.87,2-25.58-2.21,6,1.49,15.52,1.86,22.53-1,10.19-4.1,16.27-11.19,19.11-26.09-8.88,16.34-24.4,28.9-43.44,21.86C8.93,54.22,4.1,49.92.57,44.75A36.3,36.3,0,0,0,69.11,20.83C69.05,20.64,69,20.44,68.91,20.25Z"/><path class="cls-5" d="M26.81,4.39c13.37-6.08,31-.55,35.9,10.16-11.57-6.14-21.64-8.5-33.84-3S12.71,28.4,12,38.57C7.18,27.87,13.44,10.48,26.81,4.39Z"/><path class="cls-6" d="M23.89,6c7.2-2.66,15,.39,17.33,6.82s-1.54,13.78-8.74,16.44-15-.4-17.33-6.82S16.7,8.68,23.89,6Z"/><path class="cls-7" d="M23,8.11a6,6,0,1,1-3.54,7.68A6,6,0,0,1,23,8.11Z"/></svg>