<svg id="Capa_1" data-name="Capa 1" xmlns="http://www.w3.org/2000/svg" viewBox="0 0 220 195"><defs><style>.cls-1{fill:#2f98d5;}.cls-2{fill:#9ac31c;}.cls-3{fill:#525251;}</style></defs><polygon class="cls-1" points="166.64 150.81 123.87 76.73 143.56 76.73 186.32 150.81 166.64 150.81"/><path class="cls-1" d="M166.64,133.76H100.79l-32.93-57,32.93-57h65.85l32.92,57Zm-56-17h46.16l23.09-40-23.09-40H110.63l-23.08,40Z"/><path class="cls-2" d="M43.06,110.05a22.87,22.87,0,0,1-17,6.7A22.91,22.91,0,0,1,49.76,93,22.91,22.91,0,0,1,43.06,110.05Z"/><path class="cls-2" d="M9.21,110.05a22.88,22.88,0,0,0,17,6.7A22.92,22.92,0,0,0,2.51,93,22.91,22.91,0,0,0,9.21,110.05Z"/><polygon class="cls-2" points="110.63 19.7 26.14 19.7 26.14 76.73 43.18 76.73 43.18 36.75 100.79 36.75 123.87 76.73 100.79 116.71 49.2 116.71 43.18 116.71 26.14 116.71 26.14 133.76 110.63 133.76 143.56 76.73 110.63 19.7"/><path class="cls-1" d="M206.63,16.35,217.5,19.7l-10.87,3.36a5.6,5.6,0,0,0-3.72,3.71l-3.35,10.87-3.35-10.87a5.6,5.6,0,0,0-3.71-3.71L181.62,19.7l10.88-3.35a5.64,5.64,0,0,0,3.71-3.71l3.35-10.88,3.35,10.88A5.64,5.64,0,0,0,206.63,16.35Z"/><path class="cls-3" d="M129.21,169.66l-5.48,9.49,5.48,9.49H133v4.6h3.34v-4.6h3.81l5.48-9.49-5.48-9.49Zm8.9,15.43h-1.76v-4.58H133v4.58h-1.75l-3.43-5.94,3.43-5.94h6.85l3.43,5.94Z"/><rect class="cls-3" x="45.5" y="169.7" width="3.47" height="18.85"/><polygon class="cls-3" points="71.09 188.55 85.06 188.55 85.06 185.08 74.56 185.08 74.56 181.31 82.04 181.31 82.04 177.84 74.56 177.84 74.56 173.17 85.06 173.17 85.06 169.7 71.09 169.7 71.09 188.55"/><rect class="cls-3" x="167.22" y="169.7" width="3.47" height="18.85"/><polygon class="cls-3" points="60.08 186.77 60.01 186.77 54.55 169.7 50.78 169.7 56.81 188.55 63.07 188.55 69.1 169.7 65.54 169.7 60.08 186.77"/><path class="cls-3" d="M103.81,175.5A5.82,5.82,0,0,0,98,169.69H88v18.86h3.47v-7.24h4.3l4.48,7.24h4.13l-4.67-7.5A5.84,5.84,0,0,0,103.81,175.5ZM98,177.84H91.48v-4.68H98a2.34,2.34,0,0,1,0,4.68Z"/><path class="cls-3" d="M34.59,169.7H26.12v18.85h8.47a7.81,7.81,0,0,0,7.91-7.79v-3.23A7.86,7.86,0,0,0,34.59,169.7ZM39,180.33a4.4,4.4,0,0,1-4.48,4.38H29.63V173.54h4.88A4.44,4.44,0,0,1,39,178Z"/><polygon class="cls-3" points="191.62 169.7 185.91 186.82 185.44 186.82 179.74 169.7 174.05 169.7 174.05 188.56 177.53 188.56 177.53 173.77 182.47 188.6 188.88 188.6 193.82 173.77 193.82 188.56 197.3 188.56 197.3 169.7 191.62 169.7"/><path class="cls-3" d="M122.59,182.75a5.9,5.9,0,0,0-5.88-5.89h-3.92a2.19,2.19,0,0,1-2.18-2.13h0v0a2.19,2.19,0,0,1,2.18-2.19h3.39a2.19,2.19,0,0,1,2.18,2.19v0h3.55a5.62,5.62,0,0,0-5.6-5.6h-4.17a5.62,5.62,0,0,0-5.6,5.6h0a5.62,5.62,0,0,0,5.6,5.6h4.54a2.43,2.43,0,0,1,2.42,2.42h0a2.42,2.42,0,0,1-2.42,2.41h-4.91a2.41,2.41,0,0,1-2.41-2.41h-3.5a5.91,5.91,0,0,0,5.89,5.89h5a5.9,5.9,0,0,0,5.88-5.89h0Z"/><path class="cls-3" d="M160.43,181.91a3.26,3.26,0,0,1-3.25,3.25h-3.1a3.25,3.25,0,0,1-3.24-3.25V169.7H147.4v13.2a5.75,5.75,0,0,0,5.73,5.74h5a5.75,5.75,0,0,0,5.74-5.74V169.7h-3.44Z"/></svg>