<?xml version="1.0" encoding="utf-8"?>
<!-- Generator: Adobe Illustrator 25.4.0, SVG Export Plug-In . SVG Version: 6.00 Build 0)  -->
<svg version="1.1" id="Capa_1" xmlns="http://www.w3.org/2000/svg" xmlns:xlink="http://www.w3.org/1999/xlink" x="0px" y="0px"
	 viewBox="0 0 240 40" style="enable-background:new 0 0 240 40;" xml:space="preserve">
<style type="text/css">
	.st0{fill:#FFFFFF;}
</style>
<g id="svg_5">
	<path id="svg_6" class="st0" d="M9,6.8h10.5c6.1,0,9.9,3.6,9.9,8.9v0.1c0,6-4.6,9-10.4,9h-4.3v7.7H9C9,32.6,9,6.8,9,6.8z
		 M19.2,19.8c2.8,0,4.5-1.7,4.5-3.9v-0.1c0-2.5-1.8-3.9-4.6-3.9h-4.4v7.9L19.2,19.8L19.2,19.8z"/>
	<path id="svg_7" class="st0" d="M37,6.8h11.8c3.3,0,5.8,0.9,7.5,2.6c1.4,1.4,2.2,3.5,2.2,5.9v0.1c0,4.2-2.2,6.8-5.5,8l6.3,9.2h-6.6
		l-5.5-8.2h-4.5v8.2H37L37,6.8C37,6.8,37,6.8,37,6.8z M48.4,19.3c2.8,0,4.3-1.5,4.3-3.6v-0.1c0-2.4-1.7-3.7-4.5-3.7h-5.6v7.4
		L48.4,19.3L48.4,19.3z"/>
	<path id="svg_8" class="st0" d="M66.1,6.8h19.4v5H71.7v5.2h12.2v5H71.7v5.4h14v5H66.1C66.1,32.6,66.1,6.8,66.1,6.8z"/>
	<path id="svg_9" class="st0" d="M91.9,19.8L91.9,19.8c0-7.4,5.5-13.4,13.4-13.4c4.9,0,7.8,1.6,10.2,4l-3.6,4.2
		c-2-1.8-4-2.9-6.6-2.9c-4.3,0-7.5,3.6-7.5,8v0.1c0,4.4,3.1,8.1,7.5,8.1c2.9,0,4.8-1.2,6.8-3l3.6,3.6c-2.7,2.8-5.6,4.6-10.6,4.6
		C97.5,33.1,91.9,27.2,91.9,19.8z"/>
	<path id="svg_10" class="st0" d="M121.8,6.8h5.7v25.8h-5.7C121.8,32.6,121.8,6.9,121.8,6.8z"/>
	<path id="svg_11" class="st0" d="M132.9,28.9l3.4-4c2.3,1.9,4.8,3.1,7.7,3.1c2.3,0,3.7-0.9,3.7-2.4v-0.1c0-1.4-0.9-2.2-5.2-3.3
		c-5.2-1.3-8.5-2.8-8.5-7.9v-0.1c0-4.7,3.8-7.8,9-7.8c3.8,0,7,1.2,9.6,3.3l-2.9,4.3c-2.3-1.6-4.5-2.5-6.7-2.5s-3.3,1-3.3,2.2v0.1
		c0,1.7,1.1,2.3,5.6,3.4c5.2,1.4,8.2,3.2,8.2,7.7V25c0,5.1-3.9,8-9.5,8C139.9,33,135.9,31.6,132.9,28.9z"/>
	<path id="svg_12" class="st0" d="M159.5,6.8h5.7v25.8h-5.7C159.5,32.6,159.5,6.9,159.5,6.8z"/>
	<path id="svg_13" class="st0" d="M205.1,6.8h5.2l12.1,15.9V6.8h5.6v25.8h-4.8l-12.5-16.4v16.4h-5.6C205.1,32.6,205.1,6.8,205.1,6.8
		z"/>
	<path id="svg_14" class="st0" d="M192.4,8.4c-2.1-1.2-4.5-1.9-7.2-1.9c-2.8,0-5.2,0.7-7.3,2l3.2,3.6l0.5,0.5c1-0.5,2.2-0.8,3.6-0.8
		s2.5,0.3,3.6,0.9l0.5-0.5L192.4,8.4L192.4,8.4z"/>
	<path id="svg_15" class="st0" d="M193.8,9.2l-3.8,4.2c1.8,1.5,2.9,3.8,2.9,6.3v0.1c0,4.4-3.2,8-7.7,8s-7.8-3.7-7.8-8.1v-0.1
		c0-2.5,1.1-4.8,2.8-6.3l-3.7-4.1c-3.1,2.4-5.1,6.2-5.1,10.4v0.1c0,7.3,5.7,13.2,13.7,13.2s13.7-6,13.7-13.3v-0.1
		C198.8,15.4,196.9,11.7,193.8,9.2z"/>
</g>
</svg>
