<?xml version="1.0" encoding="UTF-8" standalone="no"?>
<!DOCTYPE svg PUBLIC "-//W3C//DTD SVG 1.1//EN" "http://www.w3.org/Graphics/SVG/1.1/DTD/svg11.dtd">
<svg width="100%" height="100%" viewBox="0 0 3508 2481" version="1.1" xmlns="http://www.w3.org/2000/svg" xmlns:xlink="http://www.w3.org/1999/xlink" xml:space="preserve" xmlns:serif="http://www.serif.com/" style="fill-rule:evenodd;clip-rule:evenodd;stroke-linejoin:round;stroke-miterlimit:2;">
    <g id="Página-1" serif:id="Página 1" transform="matrix(4.166667,0,0,4.166667,0,0)">
        <rect x="0" y="0" width="841.89" height="595.276" style="fill:none;"/>
        <g id="Capa-1" serif:id="Capa 1">
            <g transform="matrix(1,0,0,1,225.3667,464.1961)">
                <path d="M0,-11.433L11.52,-11.433L11.52,-9.986L6.471,-9.986L6.471,0L5.049,0L5.049,-9.986L0,-9.986L0,-11.433Z" style="fill-rule:nonzero;"/>
            </g>
            <g transform="matrix(1,0,0,1,231.1196,453.4757)">
                <path d="M0,10.014L0.016,10.014L0.016,0.029L5.058,-0.015L-5.036,0.029L0,0.029L0,10.014ZM1.435,11.433L-1.419,11.433L-1.419,1.448L-6.455,1.448L-6.455,-1.419L6.471,-1.419L6.471,1.448L1.435,1.448L1.435,11.433Z" style="fill-rule:nonzero;"/>
            </g>
            <g transform="matrix(1,0,0,1,258.8662,464.1934)">
                <path d="M0,-11.484L1.428,-11.484L1.428,-5.747C1.428,-2.546 -1.136,0 -4.316,0C-7.479,0 -10.07,-2.546 -10.07,-5.747L-10.07,-11.484L-8.617,-11.484L-8.617,-5.747C-8.617,-3.364 -6.696,-1.424 -4.316,-1.424C-1.943,-1.424 0,-3.364 0,-5.747L0,-11.484Z" style="fill-rule:nonzero;"/>
            </g>
            <g transform="matrix(1,0,0,1,249.5132,463.4905)">
                <path d="M0,-10.078L0,-5.045C0,-2.254 2.251,-0.003 5.037,-0.003C7.815,-0.003 10.07,-2.254 10.07,-5.045L10.054,-10.078L10.054,-5.045C10.054,-2.264 7.806,-0.018 5.037,-0.018C2.273,-0.018 0.028,-2.264 0.028,-5.045L0,-10.078ZM5.037,1.419C1.478,1.419 -1.418,-1.484 -1.418,-5.045L-1.418,-11.497L1.447,-11.497L1.447,-5.045C1.447,-3.04 3.053,-1.428 5.037,-1.428C7.026,-1.428 8.647,-3.04 8.647,-5.045L8.647,-11.497L11.492,-11.497L11.492,-5.045C11.492,-1.484 8.595,1.419 5.037,1.419" style="fill-rule:nonzero;"/>
            </g>
            <g transform="matrix(1,0,0,1,283.7065,455.9382)">
                <path d="M0,5.03C0,6.81 -1.45,8.258 -3.255,8.258L-11.498,8.258L-11.498,6.829L-3.255,6.829C-2.254,6.829 -1.45,6.021 -1.45,5.03C-1.45,4.038 -2.254,3.243 -3.255,3.243L-8.257,3.243C-10.041,3.243 -11.498,1.784 -11.498,0.006C-11.498,-1.784 -10.041,-3.228 -8.257,-3.228L-0.019,-3.228L-0.019,-1.803L-8.257,-1.803C-9.258,-1.803 -10.066,-0.977 -10.066,0.006C-10.066,0.988 -9.258,1.784 -8.257,1.784L-8.257,1.814L-3.255,1.814C-1.45,1.814 0,3.243 0,5.03" style="fill-rule:nonzero;"/>
            </g>
            <g transform="matrix(1,0,0,1,275.4478,463.4905)">
                <path d="M0,-10.078C-1.391,-10.078 -2.529,-8.946 -2.529,-7.546C-2.529,-6.405 -1.755,-5.435 -0.708,-5.117L-0.708,-5.154C-1.75,-5.463 -2.51,-6.417 -2.51,-7.546C-2.51,-8.937 -1.381,-10.059 0,-10.059L7.531,-10.078L0,-10.078ZM-2.529,-0.003L5.002,-0.003C6.408,-0.003 7.556,-1.132 7.556,-2.522C7.556,-3.913 6.408,-5.033 5.002,-5.033L-0.271,-5.033C-0.178,-5.026 -0.084,-5.026 0,-5.026L5.002,-5.026C6.393,-5.026 7.516,-3.904 7.516,-2.522C7.516,-1.141 6.393,-0.018 5.002,-0.018L-2.529,-0.003ZM5.002,1.419L-3.948,1.419L-3.948,-1.428L5.002,-1.428C5.616,-1.428 6.1,-1.911 6.1,-2.522C6.1,-3.118 5.613,-3.599 5.002,-3.599L0,-3.599C-2.173,-3.599 -3.948,-5.379 -3.948,-7.546C-3.948,-9.726 -2.173,-11.497 0,-11.497L8.95,-11.497L8.95,-8.65L0,-8.65C-0.602,-8.65 -1.098,-8.157 -1.098,-7.546C-1.098,-6.954 -0.617,-6.474 0,-6.474L5.002,-6.452C7.188,-6.452 8.969,-4.692 8.969,-2.522C8.969,-0.351 7.188,1.419 5.002,1.419" style="fill-rule:nonzero;"/>
            </g>
            <g transform="matrix(1,0,0,1,0,321.61)">
                <rect x="311.998" y="131.081" width="1.447" height="11.504"/>
            </g>
            <g transform="matrix(1,0,0,1,312.7075,453.4047)">
                <path d="M0,10.085L0.034,10.085L0,-0.01L0,10.085ZM1.453,11.504L-1.413,11.504L-1.413,-1.419L1.453,-1.419L1.453,11.504Z" style="fill-rule:nonzero;"/>
            </g>
            <g transform="matrix(1,0,0,1,326.8135,454.135)">
                <path d="M0,8.633L4.319,8.633C6.676,8.633 8.619,6.693 8.619,4.311C8.619,1.928 6.676,0.001 4.319,0.001L0,0.001L0,8.633ZM4.319,10.061L-1.45,10.061L-1.45,-1.428L4.319,-1.428C7.475,-1.428 10.063,1.142 10.063,4.311C10.063,7.51 7.475,10.061 4.319,10.061" style="fill-rule:nonzero;"/>
            </g>
            <g transform="matrix(1,0,0,1,327.5171,454.8409)">
                <path d="M0,7.222L3.614,7.222C5.585,7.222 7.2,5.61 7.2,3.605C7.2,1.624 5.585,-0.001 3.614,-0.001L0,-0.001L0,7.222ZM3.614,8.631L-1.407,8.631L-1.407,-1.41L3.614,-1.41C6.371,-1.41 8.619,0.835 8.619,3.605C8.619,6.386 6.371,8.631 3.614,8.631M-1.451,8.65L3.614,8.65C6.389,8.65 8.65,6.396 8.65,3.605C8.65,0.826 6.389,-1.428 3.614,-1.428L-1.451,-1.428L-1.451,8.65ZM3.614,10.069L-2.86,10.069L-2.86,-2.847L3.614,-2.847C7.172,-2.847 10.069,0.046 10.069,3.605C10.069,7.165 7.172,10.069 3.614,10.069" style="fill-rule:nonzero;"/>
            </g>
            <g transform="matrix(1,0,0,1,360.2876,452.7097)">
                <path d="M0,11.485L-11.5,11.485L-11.5,0L0,0L0,1.424L-10.063,1.424L-10.063,4.995L-0.945,4.995L-0.945,6.452L-10.063,6.452L-10.063,10.056L0,10.056L0,11.485Z" style="fill-rule:nonzero;"/>
            </g>
            <g transform="matrix(1,0,0,1,349.5078,453.4137)">
                <path d="M0,10.076L10.069,10.06L0.009,10.06L0.009,5.033L9.121,5.006L0.009,5.006L0.009,0.019L10.069,0L0,0L0,10.076ZM11.491,11.495L-1.429,11.495L-1.429,-1.419L11.491,-1.419L11.491,1.429L1.421,1.429L1.421,3.587L10.54,3.587L10.54,6.452L1.421,6.452L1.421,8.647L11.491,8.647L11.491,11.495Z" style="fill-rule:nonzero;"/>
            </g>
            <g transform="matrix(1,0,0,1,373.6509,457.257)">
                <path d="M0,2.386L8.613,2.386L8.613,1.189C8.613,-1.194 6.686,-3.121 4.304,-3.121C1.918,-3.121 0,-1.194 0,1.189L0,2.386ZM0,6.936L-1.45,6.936L-1.45,1.189C-1.45,-1.98 1.145,-4.55 4.304,-4.55C7.475,-4.55 10.051,-1.98 10.051,1.189L10.051,6.936L8.613,6.936L8.613,3.833L0,3.833L0,6.936Z" style="fill-rule:nonzero;"/>
            </g>
            <g transform="matrix(1,0,0,1,374.3696,457.9659)">
                <path d="M0,0.972L7.185,0.972L7.185,0.48C7.185,-1.501 5.566,-3.126 3.583,-3.126C1.606,-3.126 0,-1.501 0,0.48L0,0.972ZM8.604,2.382L-1.422,2.382L-1.422,0.48C-1.422,-2.29 0.823,-4.535 3.583,-4.535C6.355,-4.535 8.604,-2.29 8.604,0.48L8.604,2.382ZM8.604,5.522L8.622,5.522L8.622,0.48C8.622,-2.299 6.358,-4.553 3.583,-4.553C0.807,-4.553 -1.457,-2.299 -1.457,0.48L-1.422,5.522L-1.422,2.428L8.604,2.428L8.604,5.522ZM10.041,6.944L7.185,6.944L7.185,3.828L0,3.828L0,6.944L-2.873,6.944L-2.873,0.48C-2.873,-3.079 0.025,-5.972 3.583,-5.972C7.144,-5.972 10.041,-3.079 10.041,0.48L10.041,6.944Z" style="fill-rule:nonzero;"/>
            </g>
            <g transform="matrix(1,0,0,1,407.1191,455.9382)">
                <path d="M0,5.03C0,6.81 -1.456,8.258 -3.265,8.258L-11.504,8.258L-11.504,6.829L-3.265,6.829C-2.261,6.829 -1.456,6.021 -1.456,5.03C-1.456,4.038 -2.261,3.243 -3.265,3.243L-8.27,3.243C-10.057,3.243 -11.504,1.784 -11.504,0.006C-11.504,-1.784 -10.057,-3.228 -8.27,-3.228L-0.025,-3.228L-0.025,-1.803L-8.27,-1.803C-9.268,-1.803 -10.069,-0.977 -10.069,0.006C-10.069,0.988 -9.268,1.784 -8.27,1.784L-8.27,1.814L-3.265,1.814C-1.456,1.814 0,3.243 0,5.03" style="fill-rule:nonzero;"/>
            </g>
            <g transform="matrix(1,0,0,1,398.8481,463.4905)">
                <path d="M0,-10.078C-1.391,-10.078 -2.526,-8.946 -2.526,-7.546C-2.526,-6.405 -1.752,-5.435 -0.705,-5.117L-0.705,-5.154C-1.744,-5.463 -2.507,-6.417 -2.507,-7.546C-2.507,-8.937 -1.378,-10.059 0,-10.059L7.537,-10.078L0,-10.078ZM-2.526,-0.003L5.005,-0.003C6.412,-0.003 7.553,-1.132 7.553,-2.522C7.553,-3.913 6.412,-5.033 5.005,-5.033L-0.265,-5.033C-0.178,-5.026 -0.087,-5.026 0,-5.026L5.005,-5.026C6.399,-5.026 7.519,-3.904 7.519,-2.522C7.519,-1.141 6.399,-0.018 5.005,-0.018L-2.526,-0.003ZM5.005,1.419L-3.942,1.419L-3.942,-1.428L5.005,-1.428C5.628,-1.428 6.1,-1.911 6.1,-2.522C6.1,-3.118 5.61,-3.599 5.005,-3.599L0,-3.599C-2.165,-3.599 -3.942,-5.379 -3.942,-7.546C-3.942,-9.726 -2.165,-11.497 0,-11.497L8.956,-11.497L8.956,-8.65L0,-8.65C-0.602,-8.65 -1.095,-8.157 -1.095,-7.546C-1.095,-6.954 -0.605,-6.474 0,-6.474L5.005,-6.452C7.194,-6.452 8.975,-4.692 8.975,-2.522C8.975,-0.351 7.194,1.419 5.005,1.419" style="fill-rule:nonzero;"/>
            </g>
            <g transform="matrix(1,0,0,1,446.9033,452.7097)">
                <path d="M0,11.485L-11.504,11.485L-11.504,0L0,0L0,1.424L-10.069,1.424L-10.069,4.995L-0.954,4.995L-0.954,6.452L-10.069,6.452L-10.069,10.056L0,10.056L0,11.485Z" style="fill-rule:nonzero;"/>
            </g>
            <g transform="matrix(1,0,0,1,436.1143,453.4137)">
                <path d="M0,10.076L10.072,10.06L0.019,10.06L0.019,5.033L9.13,5.006L0.019,5.006L0.019,0.019L10.072,0L0,0L0,10.076ZM11.494,11.495L-1.419,11.495L-1.419,-1.419L11.494,-1.419L11.494,1.429L1.437,1.429L1.437,3.587L10.549,3.587L10.549,6.452L1.437,6.452L1.437,8.647L11.494,8.647L11.494,11.495Z" style="fill-rule:nonzero;"/>
            </g>
            <g transform="matrix(1,0,0,1,470.3281,458.4567)">
                <path d="M0,-0.011L0,5.737L-1.456,5.737L-1.456,-0.011C-1.456,-2.393 -3.383,-4.32 -5.747,-4.32C-8.126,-4.32 -10.066,-2.393 -10.066,-0.011L-10.066,5.737L-11.51,5.737L-11.51,-0.011L-11.494,-0.011C-11.494,-3.182 -8.925,-5.748 -5.747,-5.748C-2.585,-5.748 0,-3.182 0,-0.011" style="fill-rule:nonzero;"/>
            </g>
            <g transform="matrix(1,0,0,1,469.5791,453.4137)">
                <path d="M0,10.076L0.047,10.076L0.047,5.033C0.047,2.252 -2.217,0 -4.999,0C-7.768,0 -10.041,2.252 -10.041,5.033L-10.022,10.076L-10.022,5.033C-10.022,2.261 -7.768,0.019 -4.999,0.019C-2.235,0.019 0,2.261 0,5.033L0,10.076ZM1.457,11.495L-1.409,11.495L-1.409,5.033C-1.409,3.05 -3.012,1.429 -4.999,1.429C-6.979,1.429 -8.604,3.05 -8.604,5.033L-8.604,11.495L-11.47,11.495L-11.41,4.338C-11.061,1.11 -8.316,-1.419 -4.999,-1.419C-1.437,-1.419 1.457,1.475 1.457,5.033L1.457,11.495Z" style="fill-rule:nonzero;"/>
            </g>
            <g transform="matrix(1,0,0,1,510.1191,460.9598)">
                <path d="M0,-5.016L0,3.236L-1.437,3.236L-1.437,-5.016C-1.437,-5.997 -2.255,-6.825 -3.237,-6.825C-4.226,-6.825 -5.033,-5.997 -5.033,-5.016L-5.033,3.236L-6.471,3.236L-6.471,-5.016C-6.471,-5.997 -7.278,-6.825 -8.251,-6.825C-9.262,-6.825 -10.069,-5.997 -10.069,-5.016L-10.069,3.236L-11.498,3.236L-11.498,-5.016C-11.498,-6.805 -10.041,-8.252 -8.251,-8.252C-7.25,-8.252 -6.34,-7.787 -5.747,-7.045C-5.155,-7.787 -4.266,-8.252 -3.237,-8.252C-1.456,-8.252 0,-6.805 0,-5.016" style="fill-rule:nonzero;"/>
            </g>
            <g transform="matrix(1,0,0,1,509.3945,453.4137)">
                <path d="M0,10.076L0.019,10.076L0.019,2.532C0.019,1.129 -1.12,0 -2.514,0C-3.29,0 -3.977,0.334 -4.469,0.945L-5.021,1.631L-5.579,0.945C-6.054,0.344 -6.768,0 -7.525,0C-8.935,0 -10.066,1.129 -10.066,2.532L-10.051,10.076L-10.051,2.532C-10.051,1.141 -8.926,0.019 -7.525,0.019C-6.165,0.019 -5.043,1.141 -5.043,2.532L-5.033,10.076L-5.033,2.532C-5.033,1.141 -3.893,0.019 -2.514,0.019C-1.129,0.019 0,1.141 0,2.532L0,10.076ZM1.428,11.495L-1.416,11.495L-1.416,2.532C-1.416,1.928 -1.918,1.429 -2.514,1.429C-3.106,1.429 -3.605,1.928 -3.605,2.532L-3.605,11.495L-6.462,11.495L-6.462,2.532C-6.462,1.918 -6.945,1.429 -7.525,1.429C-8.14,1.429 -8.632,1.918 -8.632,2.532L-8.632,11.495L-11.485,11.495L-11.485,2.532C-11.485,0.352 -9.714,-1.419 -7.525,-1.419C-6.599,-1.419 -5.72,-1.095 -5.021,-0.512C-4.319,-1.095 -3.446,-1.419 -2.514,-1.419C-0.331,-1.419 1.428,0.352 1.428,2.532L1.428,11.495Z" style="fill-rule:nonzero;"/>
            </g>
            <g transform="matrix(1,0,0,1,523.4854,457.257)">
                <path d="M0,2.386L8.612,2.386L8.612,1.189C8.612,-1.194 6.676,-3.121 4.294,-3.121C1.908,-3.121 0,-1.194 0,1.189L0,2.386ZM0,6.936L-1.444,6.936L-1.444,1.189C-1.444,-1.98 1.132,-4.55 4.294,-4.55C7.472,-4.55 10.051,-1.98 10.051,1.189L10.051,6.936L8.612,6.936L8.612,3.833L0,3.833L0,6.936Z" style="fill-rule:nonzero;"/>
            </g>
            <g transform="matrix(1,0,0,1,524.1914,457.9659)">
                <path d="M0,0.972L7.194,0.972L7.194,0.48C7.194,-1.501 5.579,-3.126 3.586,-3.126C1.612,-3.126 0,-1.501 0,0.48L0,0.972ZM8.613,2.382L-1.419,2.382L-1.419,0.48C-1.419,-2.29 0.836,-4.535 3.586,-4.535C6.358,-4.535 8.613,-2.29 8.613,0.48L8.613,2.382ZM8.613,5.522L8.632,5.522L8.632,0.48C8.632,-2.299 6.368,-4.553 3.586,-4.553C0.817,-4.553 -1.447,-2.299 -1.447,0.48L-1.419,5.522L-1.419,2.428L8.613,2.428L8.613,5.522ZM10.051,6.944L7.194,6.944L7.194,3.828L0,3.828L0,6.944L-2.865,6.944L-2.865,0.48C-2.865,-3.079 0.028,-5.972 3.586,-5.972C7.147,-5.972 10.051,-3.079 10.051,0.48L10.051,6.944Z" style="fill-rule:nonzero;"/>
            </g>
            <g transform="matrix(1,0,0,1,555.5156,460.9598)">
                <path d="M0,-5.016C0,-6.016 -0.808,-6.825 -1.809,-6.825L-8.613,-6.825L-8.613,-3.238L-1.809,-3.238C-0.808,-3.238 0,-4.034 0,-5.016M1.438,0.008L1.438,3.236L0,3.236L0,0.008C0,-0.983 -0.808,-1.8 -1.809,-1.8L-8.613,-1.8L-8.613,3.236L-10.069,3.236L-10.069,-8.252L-1.809,-8.252C-0.031,-8.252 1.429,-6.805 1.429,-5.016C1.429,-4.014 0.964,-3.097 0.24,-2.514C0.964,-1.91 1.438,-1.011 1.438,0.008" style="fill-rule:nonzero;"/>
            </g>
            <g transform="matrix(1,0,0,1,547.6074,459.885)">
                <path d="M0,-2.867L6.1,-2.867C6.711,-2.867 7.194,-3.347 7.194,-3.939C7.194,-4.56 6.711,-5.044 6.1,-5.044L0,-5.044L0,-2.867ZM6.1,-1.457L-1.419,-1.457L-1.419,-6.453L6.1,-6.453C7.481,-6.453 8.612,-5.331 8.612,-3.939C8.612,-2.567 7.481,-1.457 6.1,-1.457M8.612,3.604L8.641,3.604L8.641,1.084C8.641,0.332 8.298,-0.39 7.693,-0.884L7.025,-1.439L7.693,-1.975C8.289,-2.468 8.622,-3.191 8.622,-3.939C8.622,-5.34 7.49,-6.471 6.1,-6.471L-1.456,-6.471L-1.419,3.604L-1.419,-1.439L6.1,-1.439C7.481,-1.439 8.612,-0.306 8.612,1.084L8.612,3.604ZM10.069,5.023L7.194,5.023L7.194,1.084C7.194,0.47 6.701,-0.02 6.1,-0.02L0,-0.02L0,5.023L-2.876,5.023L-2.876,-7.89L6.1,-7.89C8.279,-7.89 10.041,-6.12 10.041,-3.939C10.041,-3.023 9.723,-2.135 9.143,-1.439C9.735,-0.724 10.069,0.154 10.069,1.084L10.069,5.023Z" style="fill-rule:nonzero;"/>
            </g>
            <g transform="matrix(1,0,0,1,568.873,458.4461)">
                <path d="M0,-0.018C0,-3.19 2.588,-5.756 5.778,-5.756C8.261,-5.756 10.381,-4.153 11.188,-1.936L9.623,-1.936C8.906,-3.346 7.446,-4.328 5.778,-4.328C3.393,-4.328 1.456,-2.391 1.456,-0.018C1.456,2.364 3.393,4.303 5.778,4.303C7.446,4.303 8.906,3.319 9.623,1.9L11.188,1.9C10.381,4.135 8.261,5.738 5.778,5.738C2.588,5.738 0,3.163 0,-0.018" style="fill-rule:nonzero;"/>
            </g>
            <g transform="matrix(1,0,0,1,574.6494,463.4799)">
                <path d="M0,-10.084C-2.8,-10.084 -5.061,-7.823 -5.061,-5.051C-5.061,-2.26 -2.8,-0.009 0,-0.009C1.759,-0.009 3.374,-0.944 4.282,-2.419L4.254,-2.419C3.347,-0.953 1.716,-0.019 0,-0.019C-2.771,-0.019 -5.023,-2.282 -5.023,-5.051C-5.023,-7.814 -2.771,-10.068 0,-10.068C1.716,-10.068 3.347,-9.13 4.254,-7.668L4.282,-7.668C3.374,-9.148 1.759,-10.084 0,-10.084M0,1.41C-3.576,1.41 -6.489,-1.493 -6.489,-5.051C-6.489,-8.612 -3.576,-11.494 0,-11.494C2.707,-11.494 5.152,-9.77 6.071,-7.203L6.405,-6.249L3.402,-6.249L3.206,-6.645C2.604,-7.86 1.335,-8.659 0,-8.659C-2.005,-8.659 -3.614,-7.034 -3.614,-5.051C-3.614,-3.059 -2.005,-1.437 0,-1.437C1.335,-1.437 2.604,-2.223 3.206,-3.448L3.402,-3.838L6.405,-3.838L6.071,-2.894C5.152,-0.314 2.707,1.41 0,1.41" style="fill-rule:nonzero;"/>
            </g>
            <g transform="matrix(1,0,0,1,593.4219,452.7097)">
                <path d="M0,11.485L-1.447,11.485L-1.447,0L0,0L0,4.986L8.622,4.986L8.622,0L10.069,0L10.069,11.485L8.622,11.485L8.622,6.433L0,6.433L0,11.485Z" style="fill-rule:nonzero;"/>
            </g>
            <g transform="matrix(1,0,0,1,602.7373,453.4137)">
                <path d="M0,10.076L0.04,10.076L0,0L0,4.977L-10.02,4.977L-10.057,0L-10.02,10.076L-10.02,5.014L0,5.014L0,10.076ZM1.456,11.495L-1.406,11.495L-1.406,6.433L-8.601,6.433L-8.601,11.495L-11.467,11.495L-11.467,-1.419L-8.601,-1.419L-8.601,3.571L-1.406,3.571L-1.406,-1.419L1.456,-1.419L1.456,11.495Z" style="fill-rule:nonzero;"/>
            </g>
            <g transform="matrix(1,0,0,1,616.8496,457.257)">
                <path d="M0,2.386L8.622,2.386L8.622,1.189C8.622,-1.194 6.683,-3.121 4.3,-3.121C1.918,-3.121 0,-1.194 0,1.189L0,2.386ZM0,6.936L-1.45,6.936L-1.45,1.189C-1.45,-1.98 1.138,-4.55 4.3,-4.55C7.487,-4.55 10.051,-1.98 10.051,1.189L10.051,6.936L8.622,6.936L8.622,3.833L0,3.833L0,6.936Z" style="fill-rule:nonzero;"/>
            </g>
            <g transform="matrix(1,0,0,1,617.5615,457.9659)">
                <path d="M0,0.972L7.194,0.972L7.194,0.48C7.194,-1.501 5.569,-3.126 3.587,-3.126C1.612,-3.126 0,-1.501 0,0.48L0,0.972ZM8.613,2.382L-1.419,2.382L-1.419,0.48C-1.419,-2.29 0.836,-4.535 3.587,-4.535C6.358,-4.535 8.613,-2.29 8.613,0.48L8.613,2.382ZM8.613,5.522L8.623,5.522L8.623,0.48C8.623,-2.299 6.368,-4.553 3.587,-4.553C0.808,-4.553 -1.446,-2.299 -1.446,0.48L-1.419,5.522L-1.419,2.428L8.613,2.428L8.613,5.522ZM10.051,6.944L7.194,6.944L7.194,3.828L0,3.828L0,6.944L-2.875,6.944L-2.875,0.48C-2.875,-3.079 0.028,-5.972 3.587,-5.972C7.147,-5.972 10.051,-3.079 10.051,0.48L10.051,6.944Z" style="fill-rule:nonzero;"/>
            </g>
            <g transform="matrix(350.564392,0,0,-350.564392,249.515289,231.460162)">
                <path d="M0.078,0.191C0.026,0.14 -0,0.076 -0,0.002C-0,-0.074 0.026,-0.139 0.077,-0.189C0.128,-0.24 0.192,-0.265 0.269,-0.265C0.281,-0.265 0.294,-0.264 0.309,-0.262L0.309,-0.07C0.296,-0.079 0.281,-0.083 0.265,-0.083C0.22,-0.083 0.183,-0.046 0.183,-0.001C0.183,0.044 0.22,0.081 0.265,0.081C0.31,0.081 0.347,0.044 0.347,-0.001C0.347,-0.002 0.347,-0.006 0.347,-0.006C0.347,-0.009 0.347,-0.013 0.347,-0.017L0.347,-0.254L0.533,-0.254L0.533,-0.17L0.541,-0.178C0.544,-0.182 0.548,-0.186 0.552,-0.19C0.603,-0.242 0.667,-0.269 0.742,-0.269C0.813,-0.269 0.874,-0.245 0.923,-0.197C0.963,-0.159 0.989,-0.111 1,-0.054L0.805,-0.054C0.79,-0.074 0.77,-0.084 0.746,-0.084C0.723,-0.084 0.703,-0.076 0.687,-0.06C0.671,-0.044 0.663,-0.024 0.663,-0C0.663,0.023 0.671,0.043 0.686,0.058C0.701,0.074 0.72,0.081 0.743,0.081C0.765,0.081 0.785,0.074 0.801,0.058L0.999,0.058C0.986,0.117 0.956,0.167 0.91,0.205C0.861,0.245 0.804,0.266 0.741,0.266C0.668,0.266 0.605,0.24 0.553,0.189C0.536,0.173 0.522,0.155 0.511,0.137L0.507,0.131L0.504,0.137C0.493,0.159 0.479,0.179 0.462,0.196C0.415,0.244 0.349,0.269 0.266,0.269C0.193,0.269 0.129,0.243 0.078,0.191Z" style="fill:url(#_Linear1);fill-rule:nonzero;"/>
            </g>
            <g transform="matrix(0,-1,-1,0,342.2422,213.6435)">
                <path d="M-18.313,-18.311C-28.433,-18.311 -36.622,-10.113 -36.622,0.004C-36.622,10.11 -28.433,18.313 -18.313,18.313C-8.209,18.313 -0.002,10.11 -0.002,0.004C-0.002,-10.113 -8.209,-18.311 -18.313,-18.311" style="fill:rgb(228,85,50);fill-rule:nonzero;"/>
            </g>
            <g transform="matrix(0,-1,-1,0,510.2023,213.6465)">
                <path d="M-18.309,-18.307C-28.429,-18.307 -36.618,-10.102 -36.618,0.002C-36.618,10.114 -28.429,18.309 -18.309,18.309C-8.206,18.309 0.002,10.114 0.002,0.002C0.002,-10.102 -8.206,-18.307 -18.309,-18.307" style="fill:rgb(228,85,50);fill-rule:nonzero;"/>
            </g>
            <g transform="matrix(1,0,0,1,536.7227,223.5007)">
                <path d="M0,16.506L13.017,16.506C14.935,16.506 16.493,14.978 16.493,13.091C16.493,11.173 14.935,9.642 13.017,9.642L0,9.642L0,16.506ZM0,6.91L13.017,6.91C14.935,6.91 16.466,5.339 16.466,3.452C16.466,1.571 14.935,0.047 13.017,0.047L0,0.047L0,6.91ZM-2.744,19.241L-2.744,-2.735L13.017,-2.735C16.466,-2.735 19.238,0.047 19.238,3.452C19.238,5.413 18.309,7.119 16.931,8.264C18.309,9.396 19.238,11.133 19.238,13.091C19.238,16.506 16.466,19.241 13.017,19.241L-2.744,19.241Z" style="fill:rgb(228,85,50);fill-rule:nonzero;"/>
            </g>
            <g transform="matrix(1,0,0,1,560.9365,242.7403)">
                <path d="M0,-21.863L22.02,-21.863L22.02,-19.091L12.377,-19.091L12.377,0L9.633,0L9.633,-19.091L0,-19.091L0,-21.863Z" style="fill:rgb(228,85,50);fill-rule:nonzero;"/>
            </g>
            <g transform="matrix(1,0,0,1,590.7051,242.7413)">
                <path d="M0,-22.007L0,-2.773L12.518,-2.773L12.518,0L-2.772,0L-2.772,-22.007L0,-22.007Z" style="fill:rgb(228,85,50);fill-rule:nonzero;"/>
            </g>
            <g transform="matrix(1,0,0,1,233.8511,403.1953)">
                <path d="M0,13.599L49.128,13.599L49.128,6.804C49.128,-6.786 38.095,-17.819 24.514,-17.819C10.93,-17.819 0,-6.786 0,6.804L0,13.599ZM0,39.585L-8.273,39.585L-8.273,6.804C-8.273,-11.348 6.468,-25.986 24.514,-25.986C42.664,-25.986 57.304,-11.348 57.304,6.804L57.304,39.585L49.128,39.585L49.128,21.87L0,21.87L0,39.585Z" style="fill-rule:nonzero;"/>
            </g>
            <g transform="matrix(1,0,0,1,323.8228,409.8879)">
                <path d="M0,0.009C0,-18.131 14.747,-32.781 32.903,-32.781C47.116,-32.781 59.213,-23.656 63.781,-10.93L54.869,-10.93C50.837,-18.985 42.448,-24.62 32.903,-24.62C19.315,-24.62 8.283,-13.581 8.283,0.009C8.283,13.59 19.315,24.623 32.903,24.623C42.448,24.623 50.837,18.994 54.869,10.93L63.781,10.93C59.213,23.666 47.116,32.79 32.903,32.79C14.747,32.79 0,18.143 0,0.009" style="fill-rule:nonzero;"/>
            </g>
            <g transform="matrix(1,0,0,1,478.9619,424.3194)">
                <path d="M0,-28.652C0,-34.38 -4.571,-38.942 -10.3,-38.942L-49.137,-38.942L-49.137,-18.464L-10.3,-18.464C-4.571,-18.464 0,-23.023 0,-28.652M8.268,0.01L8.268,18.458L0,18.458L0,0.01C0,-5.625 -4.571,-10.297 -10.3,-10.297L-49.137,-10.297L-49.137,18.458L-57.414,18.458L-57.414,-47.11L-10.3,-47.11C-0.112,-47.11 8.164,-38.84 8.164,-28.652C8.164,-22.923 5.508,-17.713 1.369,-14.319C5.508,-10.926 8.268,-5.828 8.268,0.01" style="fill-rule:nonzero;"/>
            </g>
            <g transform="matrix(1,0,0,1,0,224.613)">
                <rect x="521.177" y="152.496" width="8.279" height="65.671"/>
            </g>
            <g transform="matrix(1,0,0,1,563.4033,409.8879)">
                <path d="M0,0.009C0,-18.131 14.747,-32.781 32.893,-32.781C47.113,-32.781 59.21,-23.656 63.778,-10.93L54.862,-10.93C50.83,-18.985 42.448,-24.62 32.893,-24.62C19.31,-24.62 8.276,-13.581 8.276,0.009C8.276,13.59 19.31,24.623 32.893,24.623C42.448,24.623 50.83,18.994 54.862,10.93L63.778,10.93C59.21,23.666 47.113,32.79 32.893,32.79C14.747,32.79 0,18.143 0,0.009" style="fill-rule:nonzero;"/>
            </g>
        </g>
    </g>
    <defs>
        <linearGradient id="_Linear1" x1="0" y1="0" x2="1" y2="0" gradientUnits="userSpaceOnUse" gradientTransform="matrix(1,0,0,-1,0,0.000001)"><stop offset="0" style="stop-color:rgb(0,154,55);stop-opacity:1"/><stop offset="0.98" style="stop-color:rgb(237,228,26);stop-opacity:1"/><stop offset="1" style="stop-color:rgb(237,228,26);stop-opacity:1"/></linearGradient>
    </defs>
</svg>
